<svg xmlns="http://www.w3.org/2000/svg" viewBox="0 0 2500 850.9" style="enable-background:new 0 0 2500 850.9" xml:space="preserve"><path style="fill:#33155b" d="M0 0h2500v850.9H0z"/><path vector-effect="non-scaling-stroke" d="M419.7 53.1c-123.8 0-207.8 95.2-208.7 207.2V282H98.6S51.5 399.5 53.1 399.1H211v203.5c0 26.6-8.4 60-48.4 75.9l46.6 119.1c72.4-28.4 129.1-97.8 129.2-195.1V399.1h89.2v281.3h127.2V426.1c14.2-16.5 39.7-30.1 84.2-35.2-12.7 27.7-19.5 58-19.5 89 0 64 23.4 120.8 70.3 160.7 35.5 29.9 84.4 48.8 147 49 40.4 0 72.6-6 104.7-18l-36.3-95.8c-15.7 5.8-39.5 10.8-57.6 10.8-22.3 0-48.1-6.7-64.7-18.5-15.2-10.8-26-26.2-32-45.1h233.6c8.2 46.4 30.5 87 66.6 117.6 35.5 29.9 84.4 48.8 147 49 40.4.2 72.6-6 104.7-18l-36.3-95.8c-15.7 5.8-39.5 10.8-57.6 10.8-22.3 0-48.1-6.7-64.7-18.5-15.2-10.8-26-26.2-32-45.1h292.7l61.7 157.3h135l71.1-181.2c4.1 56.3 27.3 105.9 69.6 141.6 35.5 29.9 84.4 48.8 147 49 40.4 0 72.6-6 104.7-18l-36.3-95.8c-15.7 5.8-39.5 10.8-57.6 10.8-22.3 0-48.1-6.7-64.7-18.5-15.2-10.8-26-26.2-32-45.1h234c8.2 46.4 30.5 87 66.6 117.6 35.5 29.9 84.4 48.8 147 49 40.4 0 72.6-6 104.7-18l-36.3-95.8c-15.7 5.8-39.5 10.8-57.6 10.8-22.3 0-48.1-6.7-64.7-18.5-15.2-10.8-26-26.2-32-45.1h281.5v-42.6c0-95.2-63.2-208.4-203.1-208.4-85.7 0-150 44.1-183.7 105.1-30.1-58.5-88.5-105.1-178.1-105.1-57 0-104.7 19.6-140.1 50.7l15.9-40.6h-134.7l-89 249.9-89.8-249.9h-134.1l15 38c-32.5-29-77.1-48.1-134.3-48.1-85.7 0-150 44-183.7 104.9-30.3-58.5-88.5-104.9-178.1-104.9-63 0-114.5 23.8-150.8 60.8V272c-31.4 0-67.1 10.8-99.3 35-8.8 6.5-17.4 14.4-24.7 23.2v-47.3H338.2v-22.3c0-51.6 36.3-84.4 84.9-84.4 8 0 16.1 1.7 22.1 3.2L489.5 67c-19.7-8.3-41.3-13.9-69.8-13.9zM831 375c38 0 72.8 16.3 80.6 60.4h-162c7.2-34.2 31.5-60.4 81.4-60.4zm361.8 0c38 0 72.8 16.3 80.6 60.4h-162c7.1-34.2 31.2-60.4 81.4-60.4zm691.1 0c38 0 72.8 16.3 80.6 60.4h-162c7.1-34.2 31.3-60.4 81.4-60.4zm361.7 0c38 0 72.8 16.3 80.6 60.4h-162c7.2-34.2 31.3-60.4 81.4-60.4z" style="fill:#d8ff04"/></svg>