<svg xmlns="http://www.w3.org/2000/svg" viewBox="0 0 2000 542.6" style="enable-background:new 0 0 2000 542.6" xml:space="preserve"><path d="M444.6 107 178.5 447.1h119.1L558.9 107H444.6z" style="fill:#a391e0"/><path d="M1364 63.6h-91.6v100.3h-125.2V63.6h-91.7v100.3h-84.8v79.9h84.8v289.9h91.7V243.8h125.2v289.9h91.6V243.8h84.8v-79.9H1364V63.6zM846.2 306.9H688.6c2.9-42.6 38.7-75.4 81.4-74.6 45.1 0 73.9 33.2 76.6 74.6h-.4zm93 169.9-56.1-55.6c-25.2 27-60.2 42.8-97.1 44-53.1 2-98.2-38.4-102-91.4h263.3c11.6-132.7-71.8-218.7-179.2-218.7-110.1 0-182 89.4-182 195.1 0 115.8 86.2 192.3 195.7 192.3 61.6 0 121.8-24.3 157.6-65.7h-.2zm641.7 57V11.5h-91.6v522.2l91.6.1zm-1471.4 0V177.4H17.8v356.4h91.7zm449.4 0v-86.7H178.5v86.7h380.4zm0-426.8V20.4H185.4v86.7l373.5-.1zM0 63.6c0 35.1 28.5 63.6 63.7 63.6 35.1 0 63.6-28.5 63.6-63.6S98.8 0 63.6 0C28.5 0 0 28.5 0 63.6zm1897.6 243.3H1740c3-42.6 38.8-75.4 81.5-74.6 45.1 0 73.9 33.2 76.6 74.6h-.5zm93.1 169.9-56.1-55.6c-25.2 27-60.2 42.9-97.1 44-53 1.9-98.1-38.5-101.9-91.4h263.3c11.6-132.7-71.8-218.7-179.2-218.7-110.1 0-182 89.4-182 195.1 0 115.8 86.4 192.3 195.7 192.3 61.6 0 121.8-24.3 157.6-65.7h-.3z" style="fill:#283663"/></svg>