<svg xmlns="http://www.w3.org/2000/svg" viewBox="0 0 1000 172.1" style="enable-background:new 0 0 1000 172.1" xml:space="preserve"><path d="M46.5 80c-6.5-3.1-13.2-5.9-20-8.3-4.2-2-6-5.3-4.2-8.9S30 57.2 38.8 60c5.2 1.7 9.9 4.6 13.8 8.4V51.1c-8.1-3.3-16.8-4.8-25.6-4.3-7 0-13.7 2.4-19.1 6.9C3.1 57.8.3 63.7 0 70c-.5 8.8 4.8 17 13.1 20 7.3 3.9 14.7 5.5 18.9 7.9 3.2 1.4 4.7 5.2 3.2 8.5-2.1 5.1-10 6.5-19.1 3.5-5.8-2-11-5.4-15.2-9.9v20c8.5 3.6 17.7 5.4 27 5.1 18.7 0 29.4-10 30-23.1 1.4-9.1-3.2-18-11.4-22zM359.3 122.9c-2.2-4.4-2.2-9.6 0-14 .6-1.7 1.8-4.7 1.8-4.7h27.5s1.4 3.2 1.9 4.7c2 4.5 1.7 9.7-.7 14h35.4c-4-3.9-7.1-8.7-9-14l-25.7-60.7h-28c2.3 3.4 2.9 7.8 1.6 11.7 0 0-17.5 45.8-19.2 50-1.8 5.2-4.8 9.9-8.7 13.8l23.1-.8zm5.8-31.1 2.9-8.2c2.3-5.4 4.1-11 5.5-16.7 1.6 5.9 3.7 11.6 6.4 17l3.4 7.9h-18.2zM110 122.9c-3.5-5.7-5.1-12.5-4.5-19.2V60.9h6.2c5.7 0 11.2 2.2 15.4 6.1l-1.6-18.6H61.9L60 66.9c4.2-3.9 9.7-6.1 15.4-6h6.2v42.8c.6 6.8-1 13.5-4.6 19.3l33-.1zM182.8 110h-21.2V88.9h9.1c5.7-.3 11.3 1.6 15.8 5.1l-1.7-17.7h-23.2V60.9H180c5.7-.2 11.3 1.6 15.8 5.1l-1.7-17.6h-61c3.6 5.7 5.2 12.5 4.6 19.2v36.2c.6 6.7-1 13.5-4.6 19.2h64l1.7-18c-4.6 3.5-10.3 5.3-16 5zM232.7 67.6c-.6-6.7 1-13.4 4.5-19.2h-33.4c3.6 5.7 5.2 12.5 4.6 19.2v36.2c.6 6.7-1 13.4-4.5 19.2h61.5l1.9-18.8c-4.4 3.9-10.1 6-16 6.1h-18.6V67.6zM301.5 67.6c-.6-6.7 1-13.5 4.5-19.2h-33.5c3.5 5.7 5.1 12.5 4.6 19.2v36.2c.5 6.7-1.1 13.4-4.6 19.2h61.6l1.8-18.8c-4.5 3.8-10.1 5.8-16 5.8h-18.6l.2-42.4zM988 80c-6.4-3.7-14.9-5.7-20-8.3-5.1-2.6-6-5.2-4.3-8.8 1.7-3.6 8.5-5.5 17-3 5.2 1.7 9.9 4.6 13.8 8.4V51.7c-8.1-3.3-16.8-4.8-25.6-4.3-7 0-13.9 2.4-19.3 6.9-4.9 4.2-7.8 10.3-7.9 16.7-.5 8.8 4.8 17 13.1 20 7.4 3.9 14.8 5.5 19 8 3.2 1.4 4.7 5.1 3.3 8.3-2.1 5.2-10 6.6-19.2 3.6-5.9-2.2-11.1-5.9-15.2-10.6V120c8.5 3.8 17.8 5.6 27.1 5.4 18.7 0 30-10 30-23.4 1.3-9.2-3.5-18.1-11.8-22zM587.2 123.5c-2.4-4.3-2.6-9.5-.5-14 .6-1.7 1.8-4.7 1.8-4.7h27.4s1.5 3.2 2 4.7c2 4.5 1.7 9.7-.7 14h35.4c-4-4-7-8.7-9-14l-25.2-60.7h-28c2.1 3.3 2.7 7.3 1.6 11.1 0 0-17.5 45.7-19.2 50-1.8 5.3-4.8 10-8.8 13.9l23.2-.3zm5.8-31.1 3-8.2c2.2-5.4 4.1-11 5.4-16.7 1.5 5.8 3.5 11.5 6 17l3.4 7.9H593zM783.8 123.5c-3.3-5.8-4.8-12.5-4.1-19.2V61.5h6.7c5.9 0 11.5 2.1 15.9 6L800.2 49h-65.6l-1.7 18.5c4.4-3.9 10-6 15.9-6h6.7v42.9c.6 6.7-1 13.5-4.6 19.2l32.9-.1zM927.1 68.3c-.6-6.7 1-13.4 4.5-19.2h-32.9c3.5 5.8 5.1 12.5 4.5 19.2v36.1c.6 6.7-1 13.4-4.5 19.2h32.8c-3.5-5.8-5.1-12.5-4.5-19.2l.1-36.1zM730.2 113.5c-3.8-5.3-5.9-8.8-7.7-11.6-3.3-5.7-8.3-10.2-14.4-12.9 10.3-.8 18-9.7 17.4-20 .1-6.3-3-12.2-8.1-15.8-6.4-3.4-13.7-4.8-20.9-4h-41.9c3.5 5.8 5 12.5 4.5 19.2v36c.6 6.7-1 13.4-4.5 19.2h31.9c-3.5-5.8-5.2-12.6-4.8-19.4v-10h.9c2.8-.3 5.6.5 7.8 2.3 2.8 2.5 5.1 5.5 7 8.8l6 10c2.7 5.9 8.8 9.4 15.3 8.9h21.9c-4.1-2.9-7.6-6.5-10.4-10.7zm-34.3-32.4c-4.5 1.6-9.4 2.1-14.2 1.6v-22c8.4 0 12.1 0 15.5 2.2 2.6 2.1 4.1 5.3 3.8 8.7.3 3.9-1.7 7.6-5.1 9.5zM848.6 46.6c-22 1.5-38.6 20.7-37.1 42.7 1.5 22 20.7 38.6 42.7 37.1 20.9-1.5 37.1-18.8 37.2-39.8.1-22.1-17.8-40-39.9-40.1-1 0-2 0-2.9.1zm0 67.1c-10 0-19.1-10-19.1-27.4s8.6-27.2 19.1-27.2 19 9.4 19 27.3-8.5 27.3-19 27.3z"/><path style="fill:#d50032" d="m479.6 92.6-16.1 24.9 24.7-15.9 6.8 70.5 6.7-70.6 24.7 15.9-16.1-24.8 41.7-6.7-41.7-6.7 16.1-25-24.7 16L495 0l-6.8 70.3-24.7-16 16.1 24.9-41.7 6.7z"/></svg>